<?xml version="1.0" encoding="UTF-8" standalone="no"?><!-- Generator: Gravit.io --><svg xmlns="http://www.w3.org/2000/svg" xmlns:xlink="http://www.w3.org/1999/xlink" style="isolation:isolate" viewBox="0 0 32 32" width="32pt" height="32pt"><defs><clipPath id="_clipPath_Pjw7s1k4CvIUoXsmTdKBsEgHUqSJwzQR"><rect width="32" height="32"/></clipPath></defs><g clip-path="url(#_clipPath_Pjw7s1k4CvIUoXsmTdKBsEgHUqSJwzQR)"><path d=" M 0.028 4.08 L 0.028 27.948 Q 0.028 32 4.08 32 L 27.948 32 Q 32 32 32 27.948 L 32 4.08 Q 32 0.028 27.948 0.028 L 4.08 0.028 Q 0.028 0.028 0.028 4.08 Z " fill-rule="evenodd" fill="rgb(30,221,191)"/><g><path d=" M 12.535 19.855 L 12.535 19.855 L 11.886 20.81 C 11.228 21.758 10.858 22.439 10.767 22.856 C 10.68 23.27 10.798 23.722 11.131 24.207 L 11.387 24.578 C 11.587 24.87 11.71 25.055 11.759 25.139 C 12.091 25.715 12.119 26.365 11.836 27.088 C 11.549 27.822 11.039 28.397 10.309 28.82 C 9.582 29.239 8.835 29.384 8.06 29.256 C 7.285 29.126 6.726 28.76 6.377 28.156 C 5.728 27.031 6.181 25.764 7.738 24.349 L 8.09 24.02 C 9.168 23.042 9.679 21.976 9.619 20.823 L 10.167 19.975 L 9.211 20.006 C 8.104 19.402 6.77 19.343 5.208 19.829 L 4.566 20.023 C 2.963 20.519 1.841 20.218 1.207 19.119 C 0.858 18.515 0.82 17.856 1.089 17.137 C 1.359 16.418 1.865 15.845 2.615 15.411 C 3.401 14.958 4.168 14.81 4.918 14.969 C 5.67 15.13 6.248 15.568 6.657 16.276 L 6.745 16.428 L 6.927 16.843 C 6.971 16.957 7.021 17.062 7.08 17.163 C 7.519 17.923 8.41 18.245 9.746 18.124 L 11.45 17.976 L 11.456 17.977 L 16.504 10.213 C 17.622 8.467 18.431 7.45 18.932 7.161 C 19.497 6.835 20.141 6.809 20.863 7.086 L 21.273 7.23 L 13.922 17.823 L 26.697 16.844 L 26.634 17.236 C 26.506 18.073 26.168 18.645 25.623 18.959 C 25.181 19.215 23.922 19.378 21.837 19.459 L 12.535 19.855 Z  M 2.316 18.478 C 2.51 18.813 2.823 19.018 3.258 19.087 C 3.691 19.163 4.116 19.078 4.531 18.838 C 4.945 18.599 5.231 18.274 5.382 17.87 C 5.533 17.466 5.511 17.089 5.314 16.748 C 5.117 16.407 4.802 16.199 4.374 16.124 C 3.945 16.047 3.521 16.132 3.106 16.372 C 2.691 16.611 2.406 16.936 2.254 17.349 C 2.096 17.76 2.119 18.137 2.316 18.478 Z  M 7.538 27.524 C 7.732 27.858 8.045 28.064 8.476 28.135 C 8.909 28.211 9.334 28.125 9.753 27.884 C 10.167 27.645 10.453 27.319 10.605 26.915 C 10.756 26.512 10.733 26.135 10.536 25.793 C 10.339 25.452 10.024 25.244 9.589 25.174 C 9.156 25.1 8.735 25.182 8.328 25.417 C 7.909 25.658 7.624 25.983 7.473 26.397 C 7.319 26.806 7.342 27.182 7.538 27.524 Z " fill-rule="evenodd" fill="rgb(255,255,255)"/><path d=" M 13.683 3.205 L 13.683 3.205 C 15.831 2.328 18.306 3.368 19.183 5.516 L 22.516 13.681 L 20.66 14.439 L 17.338 6.297 C 17.289 6.184 17.237 6.079 17.177 5.973 C 17.077 5.816 16.973 5.682 16.844 5.548 C 16.57 5.289 16.288 5.121 15.931 5 L 15.723 4.945 C 15.349 4.876 15.022 4.888 14.654 4.986 L 14.44 5.06 L 14.336 5.106 C 14.133 5.208 13.964 5.321 13.792 5.469 C 13.52 5.73 13.34 6.004 13.202 6.355 L 13.137 6.56 C 13.05 6.929 13.045 7.256 13.124 7.627 L 13.187 7.841 L 16.561 16.112 L 14.705 16.87 L 11.372 8.705 C 10.495 6.557 11.535 4.082 13.683 3.205 Z  M 22.758 14.275 L 25.793 21.706 C 26.67 23.854 25.629 26.329 23.482 27.206 L 23.482 27.206 C 21.333 28.082 18.858 27.043 17.981 24.894 L 14.947 17.463 L 16.804 16.706 L 19.827 24.114 C 19.876 24.226 19.926 24.331 19.987 24.438 C 20.191 24.758 20.422 24.988 20.743 25.191 L 20.933 25.293 C 21.277 25.447 21.598 25.515 21.974 25.512 L 22.189 25.493 C 22.573 25.432 22.888 25.303 23.205 25.079 L 23.372 24.941 C 23.644 24.681 23.825 24.407 23.962 24.056 L 24.027 23.851 C 24.115 23.482 24.119 23.155 24.04 22.784 L 23.977 22.57 L 20.902 15.033 L 22.758 14.275 Z " fill-rule="evenodd" fill="rgb(255,255,255)"/></g><path d=" M 29.478 7.846 L 30.505 9.624 L 23.94 12.228 L 29.478 7.846 Z " fill-rule="evenodd" fill="rgb(255,255,255)"/><path d=" M 25.745 4.827 L 27.523 5.854 L 23.141 11.391 L 25.745 4.827 Z " fill-rule="evenodd" fill="rgb(255,255,255)"/><path d=" M 31.158 15.648 L 30.626 17.631 L 24.143 14.831 L 31.158 15.648 Z " fill-rule="evenodd" fill="rgb(255,255,255)"/></g></svg>